<svg width="190" height="80" xmlns="http://www.w3.org/2000/svg">
 <g>
  <title></title>
  <text font-style="normal" font-weight="normal" xml:space="preserve" text-anchor="start" font-family="'Quicksand SemiBold'" font-size="43" id="svg_1" y="46" x="7.00001" stroke-width="0" stroke="#000" fill="#4ecca3">Fibio</text>
  <g stroke="null" transform="rotate(-1.8073039054870605 124.53145599365281,32.99891281127918) " id="svg_25">
   <g stroke="null" transform="matrix(0.08100583190584028,0,0,0.07295220868253452,24.003528147898123,3.2714350967182484) " id="svg_6">
    <polygon stroke="null" fill="#232931" id="svg_7" points="995.9961576461792,348.7525568008423 1103.2601957321167,410.36361026763916 1210.5252103805542,348.7525568008423 1210.5252103805542,225.53257083892822 1103.2601957321167,163.92148685455322 995.9961576461792,225.53257083892822 "/>
    <polygon stroke="null" fill="#232931" id="svg_8" points="1271.4672269821167,225.53257083892822 1271.4672269821167,348.7525568008423 1378.7312650680542,410.36361026763916 1485.9962797164917,348.7525568008423 1485.9962797164917,225.53257083892822 1378.7312650680542,163.92148685455322 "/>
    <polygon stroke="null" fill="#232931" id="svg_9" points="1133.9503812789917,466.23250675201416 1133.9503812789917,589.4524774551392 1241.2152738571167,651.0636224746704 1348.4804105758667,589.4524774551392 1348.4804105758667,466.23250675201416 1241.2152738571167,404.62239933013916 "/>
   </g>
   <g stroke="null" transform="matrix(0.08100583190584028,0,0,0.07295220868253452,24.003528147898123,3.2714350967182484) " id="svg_10"/>
   <g stroke="null" transform="matrix(0.08100583190584028,0,0,0.07295220868253452,24.003528147898123,3.2714350967182484) " id="svg_11"/>
   <g stroke="null" transform="matrix(0.08100583190584028,0,0,0.07295220868253452,24.003528147898123,3.2714350967182484) " id="svg_12"/>
   <g stroke="null" transform="matrix(0.08100583190584028,0,0,0.07295220868253452,24.003528147898123,3.2714350967182484) " id="svg_13"/>
   <g stroke="null" transform="matrix(0.08100583190584028,0,0,0.07295220868253452,24.003528147898123,3.2714350967182484) " id="svg_14"/>
   <g stroke="null" transform="matrix(0.08100583190584028,0,0,0.07295220868253452,24.003528147898123,3.2714350967182484) " id="svg_15"/>
   <g stroke="null" transform="matrix(0.08100583190584028,0,0,0.07295220868253452,24.003528147898123,3.2714350967182484) " id="svg_16"/>
   <g stroke="null" transform="matrix(0.08100583190584028,0,0,0.07295220868253452,24.003528147898123,3.2714350967182484) " id="svg_17"/>
   <g stroke="null" transform="matrix(0.08100583190584028,0,0,0.07295220868253452,24.003528147898123,3.2714350967182484) " id="svg_18"/>
   <g stroke="null" transform="matrix(0.08100583190584028,0,0,0.07295220868253452,24.003528147898123,3.2714350967182484) " id="svg_19"/>
   <g stroke="null" transform="matrix(0.08100583190584028,0,0,0.07295220868253452,24.003528147898123,3.2714350967182484) " id="svg_20"/>
   <g stroke="null" transform="matrix(0.08100583190584028,0,0,0.07295220868253452,24.003528147898123,3.2714350967182484) " id="svg_21"/>
   <g stroke="null" transform="matrix(0.08100583190584028,0,0,0.07295220868253452,24.003528147898123,3.2714350967182484) " id="svg_22"/>
   <g stroke="null" transform="matrix(0.08100583190584028,0,0,0.07295220868253452,24.003528147898123,3.2714350967182484) " id="svg_23"/>
   <g stroke="null" transform="matrix(0.08100583190584028,0,0,0.07295220868253452,24.003528147898123,3.2714350967182484) " id="svg_24"/>
  </g>
 </g>
</svg>